
<svg display="none" version="1.1" xmlns="http://www.w3.org/2000/svg" xmlns:xlink="http://www.w3.org/1999/xlink">
    <defs>
        <symbol id="webIcon-stack" viewBox="0 0 1024 1024">
            <title>Stack</title>
            <path class="path1" d="M1024 320l-512-256-512 256 512 256 512-256zM512 148.97l342.058 171.030-342.058 171.030-342.058-171.030 342.058-171.030zM921.444 460.722l102.556 51.278-512 256-512-256 102.556-51.278 409.444 204.722zM921.444 652.722l102.556 51.278-512 256-512-256 102.556-51.278 409.444 204.722z"></path>
        </symbol>
        <symbol id="webIcon-barcode" viewBox="0 0 1024 1024">
            <title>Barcode</title>
            <path class="path1" d="M0 128h128v640h-128zM192 128h64v640h-64zM320 128h64v640h-64zM512 128h64v640h-64zM768 128h64v640h-64zM960 128h64v640h-64zM640 128h32v640h-32zM448 128h32v640h-32zM864 128h32v640h-32zM0 832h64v64h-64zM192 832h64v64h-64zM320 832h64v64h-64zM640 832h64v64h-64zM960 832h64v64h-64zM768 832h128v64h-128zM448 832h128v64h-128z"></path>
        </symbol>
        <symbol id="webIcon-qrcode" viewBox="0 0 1024 1024">
            <title>QR Code</title>
            <path class="path1" d="M320 64h-256v256h256v-256zM384 0v0 384h-384v-384h384zM128 128h128v128h-128zM960 64h-256v256h256v-256zM1024 0v0 384h-384v-384h384zM768 128h128v128h-128zM320 704h-256v256h256v-256zM384 640v0 384h-384v-384h384zM128 768h128v128h-128zM448 0h64v64h-64zM512 64h64v64h-64zM448 128h64v64h-64zM512 192h64v64h-64zM448 256h64v64h-64zM512 320h64v64h-64zM448 384h64v64h-64zM448 512h64v64h-64zM512 576h64v64h-64zM448 640h64v64h-64zM512 704h64v64h-64zM448 768h64v64h-64zM512 832h64v64h-64zM448 896h64v64h-64zM512 960h64v64h-64zM960 512h64v64h-64zM64 512h64v64h-64zM128 448h64v64h-64zM0 448h64v64h-64zM256 448h64v64h-64zM320 512h64v64h-64zM384 448h64v64h-64zM576 512h64v64h-64zM640 448h64v64h-64zM704 512h64v64h-64zM768 448h64v64h-64zM832 512h64v64h-64zM896 448h64v64h-64zM960 640h64v64h-64zM576 640h64v64h-64zM640 576h64v64h-64zM704 640h64v64h-64zM832 640h64v64h-64zM896 576h64v64h-64zM960 768h64v64h-64zM576 768h64v64h-64zM640 704h64v64h-64zM768 704h64v64h-64zM832 768h64v64h-64zM896 704h64v64h-64zM960 896h64v64h-64zM640 832h64v64h-64zM704 896h64v64h-64zM768 832h64v64h-64zM832 896h64v64h-64zM640 960h64v64h-64zM768 960h64v64h-64zM896 960h64v64h-64z"></path>
        </symbol>
        <symbol id="webIcon-location" viewBox="0 0 1024 1024">
            <title>Location</title>
            <path class="path1" d="M512 0c-176.732 0-320 143.268-320 320 0 320 320 704 320 704s320-384 320-704c0-176.732-143.27-320-320-320zM512 512c-106.040 0-192-85.96-192-192s85.96-192 192-192 192 85.96 192 192-85.96 192-192 192z"></path>
        </symbol>
        <symbol id="webIcon-location2" viewBox="0 0 1024 1024">
            <title>Location</title>
            <path class="path1" d="M512 0c-176.732 0-320 143.268-320 320 0 320 320 704 320 704s320-384 320-704c0-176.732-143.27-320-320-320zM512 516c-108.248 0-196-87.752-196-196s87.752-196 196-196 196 87.752 196 196-87.752 196-196 196zM388 320c0-68.483 55.517-124 124-124s124 55.517 124 124c0 68.483-55.517 124-124 124s-124-55.517-124-124z"></path>
        </symbol>
        <symbol id="webIcon-compass" viewBox="0 0 1024 1024">
            <title>Compass</title>
            <path class="path1" d="M512 0c-282.77 0-512 229.23-512 512s229.23 512 512 512 512-229.23 512-512-229.23-512-512-512zM512 928c-229.75 0-416-186.25-416-416s186.25-416 416-416 416 186.25 416 416-186.25 416-416 416zM608 416l-288-160h-64v64l160 288 288 160h64v-64l-160-288zM512 576c-35.346 0-64-28.654-64-64s28.654-64 64-64c35.346 0 64 28.654 64 64s-28.654 64-64 64z"></path>
        </symbol>
        <symbol id="webIcon-bubble" viewBox="0 0 1024 1024">
            <title>Chat</title>
            <path class="path1" d="M512 192c-54.932 0-107.988 8.662-157.694 25.742-46.712 16.054-88.306 38.744-123.628 67.444-66.214 53.798-102.678 122.984-102.678 194.814 0 40.298 11.188 79.378 33.252 116.152 22.752 37.92 56.982 72.586 98.988 100.252 30.356 19.992 50.78 51.948 56.176 87.894 1.8 11.984 2.928 24.088 3.37 36.124 7.47-6.194 14.75-12.846 21.88-19.976 24.154-24.152 56.78-37.49 90.502-37.49 5.368 0 10.762 0.336 16.156 1.024 20.974 2.666 42.398 4.020 63.676 4.020 54.934 0 107.988-8.66 157.694-25.742 46.712-16.054 88.306-38.744 123.628-67.444 66.214-53.796 102.678-122.984 102.678-194.814s-36.464-141.016-102.678-194.814c-35.322-28.698-76.916-51.39-123.628-67.444-49.706-17.080-102.76-25.742-157.694-25.742zM512 64v0c282.77 0 512 186.25 512 416 0 229.752-229.23 416-512 416-27.156 0-53.81-1.734-79.824-5.044-109.978 109.978-241.25 129.7-368.176 132.596v-26.916c68.536-33.578 128-94.74 128-164.636 0-9.754-0.758-19.33-2.164-28.696-115.796-76.264-189.836-192.754-189.836-323.304 0-229.75 229.23-416 512-416z"></path>
        </symbol>
        <symbol id="webIcon-spinner" viewBox="0 0 1024 1024">
            <title>Spinner</title>
            <path class="path1" d="M1024 512c-1.278-66.862-15.784-133.516-42.576-194.462-26.704-61-65.462-116.258-113.042-161.92-47.552-45.696-103.944-81.82-164.984-105.652-61.004-23.924-126.596-35.352-191.398-33.966-64.81 1.282-129.332 15.374-188.334 41.356-59.048 25.896-112.542 63.47-156.734 109.576-44.224 46.082-79.16 100.708-102.186 159.798-23.114 59.062-34.128 122.52-32.746 185.27 1.286 62.76 14.964 125.148 40.134 182.206 25.088 57.1 61.476 108.828 106.11 151.548 44.61 42.754 97.472 76.504 154.614 98.72 57.118 22.304 118.446 32.902 179.142 31.526 60.708-1.29 120.962-14.554 176.076-38.914 55.15-24.282 105.116-59.48 146.366-102.644 41.282-43.14 73.844-94.236 95.254-149.43 13.034-33.458 21.88-68.4 26.542-103.798 1.246 0.072 2.498 0.12 3.762 0.12 35.346 0 64-28.652 64-64 0-1.796-0.094-3.572-0.238-5.332h0.238zM922.306 681.948c-23.472 53.202-57.484 101.4-99.178 141.18-41.67 39.81-91 71.186-144.244 91.79-53.228 20.678-110.29 30.452-166.884 29.082-56.604-1.298-112.596-13.736-163.82-36.474-51.25-22.666-97.684-55.49-135.994-95.712-38.338-40.198-68.528-87.764-88.322-139.058-19.87-51.284-29.228-106.214-27.864-160.756 1.302-54.552 13.328-108.412 35.254-157.69 21.858-49.3 53.498-93.97 92.246-130.81 38.73-36.868 84.53-65.87 133.874-84.856 49.338-19.060 102.136-28.006 154.626-26.644 52.5 1.306 104.228 12.918 151.562 34.034 47.352 21.050 90.256 51.502 125.624 88.782 35.396 37.258 63.21 81.294 81.39 128.688 18.248 47.392 26.782 98.058 25.424 148.496h0.238c-0.144 1.76-0.238 3.536-0.238 5.332 0 33.012 24.992 60.174 57.086 63.624-6.224 34.822-16.53 68.818-30.78 100.992z"></path>
        </symbol>
        <symbol id="webIcon-spinner2" viewBox="0 0 1024 1024">
            <title>Spinner</title>
            <path class="path1" d="M512 0c-278.748 0-505.458 222.762-511.848 499.974 5.92-241.864 189.832-435.974 415.848-435.974 229.75 0 416 200.576 416 448 0 53.020 42.98 96 96 96s96-42.98 96-96c0-282.77-229.23-512-512-512zM512 1024c278.748 0 505.458-222.762 511.848-499.974-5.92 241.864-189.832 435.974-415.848 435.974-229.75 0-416-200.576-416-448 0-53.020-42.98-96-96-96s-96 42.98-96 96c0 282.77 229.23 512 512 512z"></path>
        </symbol>
        <symbol id="webIcon-binoculars" viewBox="0 0 1024 1024">
            <title>binoculars</title>
            <path class="path1" d="M64 0h384v64h-384zM576 0h384v64h-384zM952 320h-56v-256h-256v256h-256v-256h-256v256h-56c-39.6 0-72 32.4-72 72v560c0 39.6 32.4 72 72 72h304c39.6 0 72-32.4 72-72v-376h128v376c0 39.6 32.4 72 72 72h304c39.6 0 72-32.4 72-72v-560c0-39.6-32.4-72-72-72zM348 960h-248c-19.8 0-36-14.4-36-32s16.2-32 36-32h248c19.8 0 36 14.4 36 32s-16.2 32-36 32zM544 512h-64c-17.6 0-32-14.4-32-32s14.4-32 32-32h64c17.6 0 32 14.4 32 32s-14.4 32-32 32zM924 960h-248c-19.8 0-36-14.4-36-32s16.2-32 36-32h248c19.8 0 36 14.4 36 32s-16.2 32-36 32z"></path>
        </symbol>
        <symbol id="webIcon-cogs" viewBox="0 0 1024 1024">
            <title>Settings</title>
            <path class="path1" d="M363.722 722.052l41.298-57.816-45.254-45.256-57.818 41.296c-10.722-5.994-22.204-10.774-34.266-14.192l-11.682-70.084h-64l-11.68 70.086c-12.062 3.418-23.544 8.198-34.266 14.192l-57.818-41.298-45.256 45.256 41.298 57.816c-5.994 10.72-10.774 22.206-14.192 34.266l-70.086 11.682v64l70.086 11.682c3.418 12.060 8.198 23.544 14.192 34.266l-41.298 57.816 45.254 45.256 57.818-41.296c10.722 5.994 22.204 10.774 34.266 14.192l11.682 70.084h64l11.68-70.086c12.062-3.418 23.544-8.198 34.266-14.192l57.818 41.296 45.254-45.256-41.298-57.816c5.994-10.72 10.774-22.206 14.192-34.266l70.088-11.68v-64l-70.086-11.682c-3.418-12.060-8.198-23.544-14.192-34.266zM224 864c-35.348 0-64-28.654-64-64s28.652-64 64-64 64 28.654 64 64-28.652 64-64 64zM1024 384v-64l-67.382-12.25c-1.242-8.046-2.832-15.978-4.724-23.79l57.558-37.1-24.492-59.128-66.944 14.468c-4.214-6.91-8.726-13.62-13.492-20.13l39.006-56.342-45.256-45.254-56.342 39.006c-6.512-4.766-13.22-9.276-20.13-13.494l14.468-66.944-59.128-24.494-37.1 57.558c-7.812-1.892-15.744-3.482-23.79-4.724l-12.252-67.382h-64l-12.252 67.382c-8.046 1.242-15.976 2.832-23.79 4.724l-37.098-57.558-59.128 24.492 14.468 66.944c-6.91 4.216-13.62 8.728-20.13 13.494l-56.342-39.006-45.254 45.254 39.006 56.342c-4.766 6.51-9.278 13.22-13.494 20.13l-66.944-14.468-24.492 59.128 57.558 37.1c-1.892 7.812-3.482 15.742-4.724 23.79l-67.384 12.252v64l67.382 12.25c1.242 8.046 2.832 15.978 4.724 23.79l-57.558 37.1 24.492 59.128 66.944-14.468c4.216 6.91 8.728 13.618 13.494 20.13l-39.006 56.342 45.254 45.256 56.342-39.006c6.51 4.766 13.22 9.276 20.13 13.492l-14.468 66.944 59.128 24.492 37.102-57.558c7.81 1.892 15.742 3.482 23.788 4.724l12.252 67.384h64l12.252-67.382c8.044-1.242 15.976-2.832 23.79-4.724l37.1 57.558 59.128-24.492-14.468-66.944c6.91-4.216 13.62-8.726 20.13-13.492l56.342 39.006 45.256-45.256-39.006-56.342c4.766-6.512 9.276-13.22 13.492-20.13l66.944 14.468 24.492-59.13-57.558-37.1c1.892-7.812 3.482-15.742 4.724-23.79l67.382-12.25zM672 491.2c-76.878 0-139.2-62.322-139.2-139.2s62.32-139.2 139.2-139.2 139.2 62.322 139.2 139.2c0 76.878-62.32 139.2-139.2 139.2z"></path>
        </symbol>
        <symbol id="webIcon-target" viewBox="0 0 1024 1024">
            <title>Target</title>
            <path class="path1" d="M1024 448h-100.924c-27.64-178.24-168.836-319.436-347.076-347.076v-100.924h-128v100.924c-178.24 27.64-319.436 168.836-347.076 347.076h-100.924v128h100.924c27.64 178.24 168.836 319.436 347.076 347.076v100.924h128v-100.924c178.24-27.64 319.436-168.836 347.076-347.076h100.924v-128zM792.822 448h-99.762c-19.284-54.55-62.51-97.778-117.060-117.060v-99.762c107.514 24.49 192.332 109.31 216.822 216.822zM512 576c-35.346 0-64-28.654-64-64s28.654-64 64-64c35.346 0 64 28.654 64 64s-28.654 64-64 64zM448 231.178v99.762c-54.55 19.282-97.778 62.51-117.060 117.060h-99.762c24.49-107.512 109.31-192.332 216.822-216.822zM231.178 576h99.762c19.282 54.55 62.51 97.778 117.060 117.060v99.762c-107.512-24.49-192.332-109.308-216.822-216.822zM576 792.822v-99.762c54.55-19.284 97.778-62.51 117.060-117.060h99.762c-24.49 107.514-109.308 192.332-216.822 216.822z"></path>
        </symbol>
        <symbol id="webIcon-earth" viewBox="0 0 1024 1024">
            <title>Earth</title>
            <path class="path1" d="M874.040 149.962c96.702 96.704 149.96 225.28 149.96 362.040s-53.258 265.334-149.96 362.038c-96.706 96.702-225.28 149.96-362.040 149.96s-265.334-53.258-362.040-149.96c-96.702-96.704-149.96-225.278-149.96-362.038s53.254-265.336 149.96-362.040c96.706-96.704 225.28-149.962 362.040-149.962s265.334 53.258 362.040 149.962zM828.784 828.786c63.058-63.060 104.986-141.608 122.272-227.062-13.474 19.836-26.362 27.194-34.344-17.206-8.22-72.39-74.708-26.148-116.516-51.86-44.004 29.658-142.906-57.662-126.098 40.824 25.934 44.422 140.008-59.45 83.148 34.542-36.274 65.616-132.642 210.932-120.106 286.258 1.582 109.744-112.134 22.884-151.314-13.52-26.356-72.92-8.982-200.374-77.898-236.086-74.802-3.248-139.004-10.046-167.994-93.67-17.446-59.828 18.564-148.894 82.678-162.644 93.85-58.966 127.374 69.054 215.39 71.434 27.328-28.594 101.816-37.686 107.992-69.75-57.75-10.19 73.268-48.558-5.528-70.382-43.47 5.112-71.478 45.074-48.368 78.958-84.238 19.642-86.936-121.904-167.91-77.258-2.058 70.59-132.222 22.886-45.036 8.572 29.956-13.088-48.86-51.016-6.28-44.124 20.916-1.136 91.332-25.812 72.276-42.402 39.21-24.34 72.16 58.29 110.538-1.882 27.708-46.266-11.62-54.808-46.35-31.356-19.58-21.924 34.57-69.276 82.332-89.738 15.918-6.82 31.122-10.536 42.746-9.484 24.058 27.792 68.55 32.606 70.878-3.342-59.582-28.534-125.276-43.608-193.292-43.608-97.622 0-190.47 31.024-267.308 88.39 20.65 9.46 32.372 21.238 12.478 36.296-15.456 46.054-78.17 107.876-133.224 99.124-28.586 49.296-47.412 103.606-55.46 160.528 46.112 15.256 56.744 45.45 46.836 55.55-23.496 20.488-37.936 49.53-45.376 81.322 15.010 91.836 58.172 176.476 125.27 243.576 84.616 84.614 197.118 131.214 316.784 131.214 119.664 0 232.168-46.6 316.784-131.214z"></path>
        </symbol>
        <symbol id="webIcon-eye" viewBox="0 0 1024 1024">
            <title>Watch</title>
            <path class="path1" d="M512 192c-223.318 0-416.882 130.042-512 320 95.118 189.958 288.682 320 512 320 223.314 0 416.878-130.042 512-320-95.116-189.958-288.686-320-512-320zM764.45 361.704c60.162 38.374 111.142 89.774 149.434 150.296-38.292 60.522-89.274 111.922-149.436 150.298-75.594 48.216-162.89 73.702-252.448 73.702-89.56 0-176.856-25.486-252.45-73.704-60.16-38.372-111.14-89.772-149.434-150.296 38.292-60.524 89.274-111.924 149.434-150.296 3.918-2.5 7.876-4.922 11.858-7.3-9.958 27.328-15.408 56.822-15.408 87.596 0 141.384 114.616 256 256 256s256-114.616 256-256c0-30.774-5.45-60.268-15.408-87.598 3.98 2.378 7.938 4.802 11.858 7.302zM512 410c0 53.020-42.98 96-96 96s-96-42.98-96-96 42.98-96 96-96 96 42.98 96 96z"></path>
        </symbol>
        <symbol id="webIcon-eye-blocked" viewBox="0 0 1024 1024">
            <title>Watch Not</title>
            <path class="path1" d="M839.322 296.416c77.644 55.030 141.37 129.092 184.678 215.584-95.122 189.958-288.686 320-512 320-62.566 0-122.792-10.212-179.178-29.084l77.956-77.956c33.058 7.3 66.972 11.040 101.222 11.040 89.558 0 176.854-25.486 252.446-73.704 60.162-38.376 111.144-89.776 149.436-150.298-37.052-58.566-86.014-108.55-143.65-146.494l69.090-69.088zM512 698c-22.724 0-44.752-2.976-65.728-8.534l313.186-313.184c5.562 20.972 8.542 42.994 8.542 65.718 0 141.384-114.616 256-256 256zM960 0h-53.738l-219.612 219.612c-55.076-17.924-113.754-27.612-174.65-27.612-223.318 0-416.882 130.042-512 320 42.658 85.192 105.128 158.308 181.194 213.068l-181.194 181.194v53.738h53.738l906.262-906.262v-53.738zM416 314c48.044 0 87.846 35.294 94.892 81.37l-109.524 109.524c-46.074-7.048-81.368-46.85-81.368-94.894 0-53.020 42.98-96 96-96zM110.116 512c38.292-60.524 89.274-111.924 149.434-150.296 3.918-2.5 7.876-4.922 11.858-7.3-9.958 27.328-15.408 56.822-15.408 87.596 0 58.524 19.65 112.448 52.698 155.562l-58.55 58.55c-56.072-37.642-103.754-86.772-140.032-144.112z"></path>
        </symbol>
        <symbol id="webIcon-share" viewBox="0 0 1024 1024">
            <title>Share</title>
            <path class="path1" d="M864 704c-45.16 0-85.92 18.738-115.012 48.83l-431.004-215.502c1.314-8.252 2.016-16.706 2.016-25.328s-0.702-17.076-2.016-25.326l431.004-215.502c29.092 30.090 69.852 48.828 115.012 48.828 88.366 0 160-71.634 160-160s-71.634-160-160-160-160 71.634-160 160c0 8.622 0.704 17.076 2.016 25.326l-431.004 215.504c-29.092-30.090-69.852-48.83-115.012-48.83-88.366 0-160 71.636-160 160 0 88.368 71.634 160 160 160 45.16 0 85.92-18.738 115.012-48.828l431.004 215.502c-1.312 8.25-2.016 16.704-2.016 25.326 0 88.368 71.634 160 160 160s160-71.632 160-160c0-88.364-71.634-160-160-160z"></path>
        </symbol>
    </defs>
</svg>

